<?xml version="1.0" encoding="utf-8"?>
<!-- Svg Vector Icons : http://www.onlinewebfonts.com/icon -->
<!DOCTYPE svg PUBLIC "-//W3C//DTD SVG 1.1//EN" "http://www.w3.org/Graphics/SVG/1.1/DTD/svg11.dtd">
<svg version="1.1" xmlns="http://www.w3.org/2000/svg" xmlns:xlink="http://www.w3.org/1999/xlink" x="0px" y="0px" viewBox="0 0 256 256" enable-background="new 0 0 256 256" xml:space="preserve">
<metadata> Svg Vector Icons : http://www.onlinewebfonts.com/icon </metadata>
<g><g><path fill="#000000" d="M243.8,243.8c-3,2.9-7.8,2.9-10.8,0l-61.2-60.2c-17.1,13.6-38.8,21.8-62.5,21.8c-54.8,0-99.3-43.7-99.3-97.7c0-54,44.5-97.7,99.3-97.7s99.3,43.7,99.3,97.7c0,25.2-9.8,48.2-25.8,65.5l61,60C246.7,236.1,246.7,240.9,243.8,243.8L243.8,243.8L243.8,243.8z M109.3,25c-46.4,0-84,37-84,82.6c0,45.7,37.6,82.7,84,82.7c46.4,0,84-37,84-82.7C193.3,62.1,155.7,25,109.3,25L109.3,25L109.3,25z"/></g></g>
</svg>