<?xml version="1.0" encoding="utf-8"?>
<!-- Svg Vector Icons : http://www.onlinewebfonts.com/icon -->
<!DOCTYPE svg PUBLIC "-//W3C//DTD SVG 1.1//EN" "http://www.w3.org/Graphics/SVG/1.1/DTD/svg11.dtd">
<svg version="1.1" xmlns="http://www.w3.org/2000/svg" xmlns:xlink="http://www.w3.org/1999/xlink" x="0px" y="0px" viewBox="0 0 256 256" enable-background="new 0 0 256 256" xml:space="preserve">
<metadata> Svg Vector Icons : http://www.onlinewebfonts.com/icon </metadata>
<g><g><g><path fill="#ffffff" d="M120.2,10.2c-19.7,2.8-33.7,9.2-46.3,21.3C56.3,48.2,47.3,72.1,49.7,96c1.9,19.3,10.1,36.2,24.1,49.7l4.3,4.2l-5.3,3.2c-27.3,16.5-46.1,44.4-50.8,75.7c-0.9,6.2-1.1,10.9-0.4,12.8c1.4,3.6,6.2,5.4,10,3.9c3.5-1.4,4.3-3,5.2-10.1c2.8-22.5,11.7-40.7,27.4-56.1c8-7.8,16.9-13.9,26.4-18.1l3.2-1.4l4,1.6c19.5,7.8,40.4,7.9,59.8,0.2l4.6-1.8l7,3.5c9.3,4.7,15.7,9.3,23.3,16.9c7.4,7.4,12.1,13.9,16.8,23c3.8,7.4,5.5,11.9,7.4,19.4c1.2,4.5,1.6,7.2,2.7,16.9c0.7,5.8,8.4,8.7,12.7,4.7c2.7-2.5,3-3.7,2.3-9.9c-2.4-21.9-10.7-41.4-24.4-57.8c-7.5-9-18-17.9-27.7-23.7c-2.4-1.4-4.4-2.6-4.4-2.7c0-0.1,2-2,4.3-4.3c22.1-21.5,29.9-52.6,20.5-81.6c-6.3-19.3-21.3-36.6-39.7-45.9c-5.4-2.7-15.2-6-21.2-7C137.2,10.4,123.4,9.7,120.2,10.2z M140.6,26.7c32.6,6.6,54.6,37.9,49.8,70.7c-4.5,30.5-29.3,53-60,54.2c-18.3,0.7-34.7-5.8-47.6-18.8C59,108.6,58.7,69.9,82.2,45.3c9.3-9.8,20.4-15.9,33.2-18.5C122.3,25.4,133.7,25.4,140.6,26.7z"/></g></g></g>
</svg>